{"title":"Sinbad and The Eye of the Tiger 1977 BDRip XviD AC3-FWOLF","uid":11253158,"size":1959820479,"categoryP":"video","categoryS":"movies","magnet":"?xt=urn:btih:189c5bddceefb4b1d55d2a8a3f8679f8f4b3d82b&amp;dn=Sinbad+and+The+Eye+of+the+Tiger+1977+BDRip+XviD+AC3-FWOLF&amp;tr=udp%3A%2F%2Ftracker.openbittorrent.com%3A80&amp;tr=udp%3A%2F%2Fopen.demonii.com%3A1337&amp;tr=udp%3A%2F%2Ftracker.coppersurfer.tk%3A6969&amp;tr=udp%3A%2F%2Fexodus.desync.com%3A6969","seeders":1,"leechers":0,"uploader":"TvTeam","files":10,"time":1413862130,"description":" &lt;a href=&quot;http://www.torrenting.com&quot; rel=&quot;nofollow&quot; target=&quot;_NEW&quot;&gt;http://www.torrenting.com&lt;/a&gt;\n\nSign up is OPEN - for time being. Come and have fun.\n\n\n....Sinbad and The Eye of the Tiger 1977 BDRip XviD AC3-FWOLF\n\nimdb.... &lt;a href=&quot;\nhttp://www.imdb.com/title/tt0076716/&quot; rel=&quot;nofollow&quot; target=&quot;_NEW&quot;&gt;\nhttp://www.imdb.com/title/tt0076716/&lt;/a&gt;\n\n\nSinbad The Sailor sails to deliver a cursed prince \nto a dangerous island in the face of deadly \nopposition from a powerful witch.\n\n\nDirector: Sam Wanamaker\n\nWriters:  Beverley Cross (screenplay), Beverley Cross    \n\nStars:    Patrick Wayne, Jane Seymour, Taryn Power\n\n\nFormat                                   : AVI\nFormat/Info                              : Audio Video Interleave\nFile size                                : 1.80 GiB\nDuration                                 : 1h 52mn\nOverall bit rate                         : 2 276 Kbps\n\nVideo\nID                                       : 0\nFormat                                   : MPEG-4 Visual\nFormat profile                           : Advanced Simple@L5\nFormat settings, BVOP                    : 2\nFormat settings, QPel                    : Yes\nFormat settings, GMC                     : No warppoints\nFormat settings, Matrix                  : Default (H.263)\nCodec ID                                 : XVID\nCodec ID/Hint                            : XviD\nDuration                                 : 1h 52mn\nBit rate                                 : 1 820 Kbps\nWidth                                    : 720 pixels\nHeight                                   : 384 pixels\nDisplay aspect ratio                     : 1.85:1\nFrame rate                               : 23.976 fps\nColor space                              : YUV\nChroma subsampling                       : 4:2:0\nBit depth                                : 8 bits\nScan type                                : Progressive\nCompression mode                         : Lossy\nBits/(Pixel*Frame)                       : 0.275\nStream size                              : 1.44 GiB (80%)\nWriting library                          : XviD 1.2.1 (UTC 2008-12-04)\n\nAudio\nID                                       : 1\nFormat                                   : AC-3\nFormat/Info                              : Audio Coding 3\nMode extension                           : CM (complete main)\nFormat settings, Endianness              : Big\nCodec ID                                 : 2000\nDuration                                 : 1h 52mn\nBit rate mode                            : Constant\nBit rate                                 : 448 Kbps\nChannel(s)                               : 6 channels\nChannel positions                        : Front: L C R, Side: L R, LFE\nSampling rate                            : 48.0 KHz\nBit depth                                : 16 bits\nCompression mode                         : Lossy\nStream size                              : 362 MiB (20%)\nAlignment                                : Aligned on interleaves\nInterleave, duration                     : 64 ms (1.53 video frames)\nInterleave, preload duration             : 192 ms\nTitle                                    : English\n\n\n\n\nEncoded....................FWOLF              \n\nSource.....................1080p Blu-ray AVC DTS-HD MA 5 1-Shadowman 35.9 GB (Thanks!)\n\nSample.....................Yes\n\nSubs (VobSub)..............English\n\nSubs.......................(srt) English,Greek\n\n\n\n[img]http://s29.postimg.org/kk21qu6pz/image.png[/img]\n\n\n\n\n[img]http://s30.postimg.org/8fbpp3twh/image.png[/img]\n\n\n\n\nGreetz To: PsiX | Blacksheep | CFR | tomcat-12...\n.....and all P2P Encoders and Groups","torrent":{"xt":"urn:btih:189c5bddceefb4b1d55d2a8a3f8679f8f4b3d82b","amp;dn":"Sinbad+and+The+Eye+of+the+Tiger+1977+BDRip+XviD+AC3-FWOLF","amp;tr":["udp%3A%2F%2Ftracker.openbittorrent.com%3A80","udp%3A%2F%2Fopen.demonii.com%3A1337","udp%3A%2F%2Ftracker.coppersurfer.tk%3A6969","udp%3A%2F%2Fexodus.desync.com%3A6969"],"infoHash":"189c5bddceefb4b1d55d2a8a3f8679f8f4b3d82b","infoHashBuffer":{"type":"Buffer","data":[24,156,91,221,206,239,180,177,213,93,42,138,63,134,121,248,244,179,216,43]},"announce":[],"urlList":[]}}